# xmcd
#
# Track frame offsets: 
#        150
#        20190
#        34004
#        48811
#        73884
#        93704
#        111362
#        132144
#        152332
#        175172
#        195959
#        215015
#        235871
#
# Disc length: 3373 seconds
#
# Revision: 0
# Processed by: cddbd v1.5.2PL0 Copyright (c) Steve Scherf et al.
# Submitted via: ExactAudioCopyFreeDBPlugin 1.0
#
DISCID=b00d2b0d
DTITLE=侃侃 - 侃侃味道
DYEAR=2018
DGENRE=world
TTITLE0=蝴蝶
TTITLE1=青春碎语
TTITLE2=网络情缘
TTITLE3=谢幕
TTITLE4=爱情啊
TTITLE5=云南味道
TTITLE6=快乐不多
TTITLE7=冬语，天使
TTITLE8=天亮了，一个人上路
TTITLE9=隔世离空的红颜
TTITLE10=老家
TTITLE11=南方的冬天
TTITLE12=滴答
EXTD=
EXTT0=
EXTT1=
EXTT2=
EXTT3=
EXTT4=
EXTT5=
EXTT6=
EXTT7=
EXTT8=
EXTT9=
EXTT10=
EXTT11=
EXTT12=
PLAYORDER=
